<svg width="170" height="168" viewBox="0 0 170 168" fill="none" xmlns="http://www.w3.org/2000/svg">
<path d="M81.0403 2.04313C83.0106 -0.0250812 86.3102 -0.0250787 88.2806 2.04313L106.126 20.7751C107.204 21.9067 108.749 22.4691 110.303 22.2952L136.014 19.4166C138.853 19.0988 141.38 21.2197 141.56 24.0706L143.19 49.891C143.288 51.4508 144.111 52.8749 145.412 53.74L166.958 68.0617C169.337 69.643 169.91 72.8925 168.216 75.192L152.867 96.0192C151.94 97.2774 151.654 98.8968 152.095 100.396L159.395 125.217C160.201 127.957 158.551 130.815 155.775 131.487L130.63 137.576C129.111 137.944 127.851 139.001 127.225 140.433L116.862 164.139C115.718 166.756 112.618 167.884 110.059 166.615L86.8827 155.116C85.4826 154.422 83.8382 154.422 82.4382 155.116L59.2621 166.615C56.7033 167.884 53.6026 166.756 52.4585 164.139L42.0959 140.433C41.4698 139.001 40.2102 137.944 38.6912 137.576L13.546 131.487C10.7697 130.815 9.11993 127.957 9.92589 125.217L17.2255 100.396C17.6664 98.8968 17.3809 97.2774 16.4537 96.0192L1.10515 75.192C-0.589494 72.8925 -0.0165195 69.643 2.36242 68.0617L23.9086 53.74C25.2103 52.8749 26.0324 51.4508 26.1309 49.891L27.7607 24.0706C27.9407 21.2197 30.4683 19.0988 33.3071 19.4166L59.0183 22.2952C60.5715 22.4691 62.1167 21.9067 63.1947 20.7751L81.0403 2.04313Z" fill="#5CBE3A"/>
</svg>
